<mxfile host="65bd71144e">
    <diagram id="UlXR2attzgORiQ10WC5t" name="第 1 页">
        <mxGraphModel dx="773" dy="573" grid="1" gridSize="10" guides="1" tooltips="1" connect="1" arrows="1" fold="1" page="1" pageScale="1" pageWidth="3000" pageHeight="8000" background="#ffffff" math="0" shadow="1">
            <root>
                <mxCell id="0"/>
                <mxCell id="1" parent="0"/>
                <mxCell id="31" value="next-core" style="swimlane;childLayout=stackLayout;resizeParent=1;resizeParentMax=0;startSize=20;shadow=1;strokeColor=#000000;swimlaneFillColor=none;fontColor=#F0F0F0;fillColor=#2A2A2A;" parent="1" vertex="1">
                    <mxGeometry x="50" y="150" width="2690" height="6320" as="geometry"/>
                </mxCell>
                <mxCell id="32" value="Brick Container" style="swimlane;startSize=20;swimlaneFillColor=#FFFFFF;strokeColor=#000000;fillColor=#2A2A2A;labelBackgroundColor=none;" parent="31" vertex="1">
                    <mxGeometry y="20" width="200" height="6300" as="geometry"/>
                </mxCell>
                <mxCell id="78" style="edgeStyle=none;html=1;exitX=0.5;exitY=1;exitDx=0;exitDy=0;entryX=0.5;entryY=0;entryDx=0;entryDy=0;startSize=20;fontColor=#1A1A1A;" parent="32" source="44" target="77" edge="1">
                    <mxGeometry relative="1" as="geometry"/>
                </mxCell>
                <UserObject label="Init Project" linkTarget="_blank" id="44">
                    <mxCell style="rounded=1;whiteSpace=wrap;html=1;shadow=1;startSize=20;fillColor=#1ba1e2;strokeColor=#006EAF;fontColor=#1A1A1A;" parent="32" vertex="1">
                        <mxGeometry x="40" y="40" width="120" height="60" as="geometry"/>
                    </mxCell>
                </UserObject>
                <mxCell id="50" value="mountPoints" style="swimlane;fontStyle=0;childLayout=stackLayout;horizontal=1;startSize=26;horizontalStack=0;resizeParent=1;resizeParentMax=0;resizeLast=0;collapsible=1;marginBottom=0;shadow=1;fillColor=none;gradientColor=#ffffff;" parent="32" vertex="1">
                    <mxGeometry x="40" y="280" width="120" height="164" as="geometry"/>
                </mxCell>
                <mxCell id="51" value="menuBar" style="text;strokeColor=none;fillColor=none;align=left;verticalAlign=top;spacingLeft=4;spacingRight=4;overflow=hidden;rotatable=0;points=[[0,0.5],[1,0.5]];portConstraint=eastwest;fontStyle=1;fontColor=#1A1A1A;" parent="50" vertex="1">
                    <mxGeometry y="26" width="120" height="24" as="geometry"/>
                </mxCell>
                <mxCell id="52" value="appBar" style="text;strokeColor=none;fillColor=none;align=left;verticalAlign=top;spacingLeft=4;spacingRight=4;overflow=hidden;rotatable=0;points=[[0,0.5],[1,0.5]];portConstraint=eastwest;fontStyle=1;fontColor=#1A1A1A;" parent="50" vertex="1">
                    <mxGeometry y="50" width="120" height="26" as="geometry"/>
                </mxCell>
                <mxCell id="53" value="loadingBar" style="text;strokeColor=none;fillColor=none;align=left;verticalAlign=top;spacingLeft=4;spacingRight=4;overflow=hidden;rotatable=0;points=[[0,0.5],[1,0.5]];portConstraint=eastwest;fontStyle=1;fontColor=#1A1A1A;" parent="50" vertex="1">
                    <mxGeometry y="76" width="120" height="26" as="geometry"/>
                </mxCell>
                <mxCell id="72" value="&amp;nbsp;main" style="text;html=1;strokeColor=none;fillColor=none;align=left;verticalAlign=middle;whiteSpace=wrap;rounded=0;shadow=1;startSize=20;fontStyle=1;fontColor=#1A1A1A;" parent="50" vertex="1">
                    <mxGeometry y="102" width="120" height="20" as="geometry"/>
                </mxCell>
                <mxCell id="73" value="&amp;nbsp;bg" style="text;html=1;strokeColor=none;fillColor=none;align=left;verticalAlign=middle;whiteSpace=wrap;rounded=0;shadow=1;startSize=20;fontStyle=1;fontColor=#1A1A1A;" parent="50" vertex="1">
                    <mxGeometry y="122" width="120" height="22" as="geometry"/>
                </mxCell>
                <mxCell id="71" value="&amp;nbsp;portal" style="text;html=1;strokeColor=none;fillColor=none;align=left;verticalAlign=middle;whiteSpace=wrap;rounded=0;shadow=1;startSize=20;fontStyle=1;fontColor=#1A1A1A;" parent="50" vertex="1">
                    <mxGeometry y="144" width="120" height="20" as="geometry"/>
                </mxCell>
                <mxCell id="79" style="edgeStyle=none;html=1;exitX=0.5;exitY=1;exitDx=0;exitDy=0;entryX=0.5;entryY=0;entryDx=0;entryDy=0;startSize=20;fontColor=#1A1A1A;" parent="32" source="77" target="50" edge="1">
                    <mxGeometry relative="1" as="geometry"/>
                </mxCell>
                <mxCell id="77" value="创建运行时实例&lt;br&gt;&amp;amp;&lt;br&gt;设置http拦截器" style="rounded=1;whiteSpace=wrap;html=1;shadow=1;startSize=20;gradientColor=#ffffff;align=center;fontColor=#1A1A1A;fillColor=#FFFFFF;" parent="32" vertex="1">
                    <mxGeometry x="40" y="160" width="120" height="60" as="geometry"/>
                </mxCell>
                <mxCell id="76" value="" style="endArrow=classic;html=1;startSize=20;exitX=0.5;exitY=1;exitDx=0;exitDy=0;entryX=0;entryY=0.5;entryDx=0;entryDy=0;fontColor=#1A1A1A;" parent="31" source="71" target="48" edge="1">
                    <mxGeometry width="50" height="50" relative="1" as="geometry">
                        <mxPoint x="450" y="270" as="sourcePoint"/>
                        <mxPoint x="500" y="220" as="targetPoint"/>
                        <Array as="points">
                            <mxPoint x="100" y="490"/>
                            <mxPoint x="100" y="530"/>
                        </Array>
                    </mxGeometry>
                </mxCell>
                <mxCell id="33" value="Runtime" style="swimlane;startSize=20;fontColor=#FFFFFF;swimlaneFillColor=#FFFFFF;strokeColor=#000000;labelBackgroundColor=none;fillColor=#2A2A2A;" parent="31" vertex="1">
                    <mxGeometry x="200" y="20" width="200" height="6300" as="geometry"/>
                </mxCell>
                <mxCell id="48" value="runtime.bootstrap" style="rounded=1;whiteSpace=wrap;html=1;shadow=1;startSize=20;gradientColor=#ffffff;fontColor=#1A1A1A;fillColor=#FFFFFF;" parent="33" vertex="1">
                    <mxGeometry x="40" y="480" width="120" height="60" as="geometry"/>
                </mxCell>
                <mxCell id="34" value="Kernel" style="swimlane;startSize=20;fontColor=#FFFFFF;swimlaneFillColor=#FFFFFF;strokeColor=#000000;fillColor=#2A2A2A;" parent="31" vertex="1">
                    <mxGeometry x="400" y="20" width="400" height="6300" as="geometry"/>
                </mxCell>
                <mxCell id="83" style="edgeStyle=none;html=1;exitX=0.5;exitY=1;exitDx=0;exitDy=0;entryX=0.5;entryY=0;entryDx=0;entryDy=0;startSize=20;fontColor=#1A1A1A;" parent="34" source="80" target="82" edge="1">
                    <mxGeometry relative="1" as="geometry"/>
                </mxCell>
                <mxCell id="80" value="kernel.bootstrap" style="rounded=1;whiteSpace=wrap;html=1;shadow=1;startSize=20;gradientColor=#ffffff;align=center;fontColor=#1A1A1A;fillColor=#FFFFFF;" parent="34" vertex="1">
                    <mxGeometry x="130" y="480" width="120" height="60" as="geometry"/>
                </mxCell>
                <mxCell id="86" style="edgeStyle=none;html=1;exitX=0.5;exitY=1;exitDx=0;exitDy=0;entryX=0.5;entryY=0;entryDx=0;entryDy=0;startSize=20;fontColor=#1A1A1A;" parent="34" source="82" target="85" edge="1">
                    <mxGeometry relative="1" as="geometry"/>
                </mxCell>
                <mxCell id="82" value="校验登陆状态(login接口)&lt;br&gt;&amp;amp;&lt;br&gt;加载微应用信息(bootstrap接口)" style="rounded=1;whiteSpace=wrap;html=1;shadow=1;startSize=20;gradientColor=#ffffff;align=center;fontColor=#1A1A1A;fillColor=#FFFFFF;" parent="34" vertex="1">
                    <mxGeometry x="80" y="600" width="220" height="60" as="geometry"/>
                </mxCell>
                <mxCell id="85" value="实例化Router&lt;br&gt;(Kernel实例数据会传入Router实例中)" style="rounded=1;whiteSpace=wrap;html=1;shadow=1;startSize=20;gradientColor=#ffffff;align=center;fontColor=#1A1A1A;fillColor=#FFFFFF;" parent="34" vertex="1">
                    <mxGeometry x="70" y="720" width="240" height="60" as="geometry"/>
                </mxCell>
                <mxCell id="40" value="Router" style="swimlane;startSize=20;fillColor=#2A2A2A;fontColor=#f0f0f0;strokeColor=#000000;labelBorderColor=none;swimlaneFillColor=#FFFFFF;" parent="31" vertex="1">
                    <mxGeometry x="800" y="20" width="710" height="6300" as="geometry"/>
                </mxCell>
                <mxCell id="92" style="edgeStyle=none;html=1;exitX=0.5;exitY=1;exitDx=0;exitDy=0;startSize=20;fontColor=#1A1A1A;" parent="40" source="87" target="91" edge="1">
                    <mxGeometry relative="1" as="geometry"/>
                </mxCell>
                <mxCell id="94" style="edgeStyle=none;html=1;exitX=1;exitY=0.5;exitDx=0;exitDy=0;entryX=0.5;entryY=0;entryDx=0;entryDy=0;startSize=20;fontColor=#1A1A1A;" parent="40" source="87" target="90" edge="1">
                    <mxGeometry relative="1" as="geometry">
                        <Array as="points">
                            <mxPoint x="455" y="750"/>
                        </Array>
                    </mxGeometry>
                </mxCell>
                <mxCell id="87" value="router.bootstrap" style="rounded=1;whiteSpace=wrap;html=1;shadow=1;startSize=20;gradientColor=#ffffff;align=center;fontColor=#1A1A1A;fillColor=#FFFFFF;" parent="40" vertex="1">
                    <mxGeometry x="255" y="720" width="160" height="60" as="geometry"/>
                </mxCell>
                <mxCell id="93" style="edgeStyle=none;html=1;exitX=0.5;exitY=1;exitDx=0;exitDy=0;entryX=1;entryY=0.5;entryDx=0;entryDy=0;startSize=20;fontColor=#1A1A1A;" parent="40" source="90" target="91" edge="1">
                    <mxGeometry relative="1" as="geometry">
                        <Array as="points">
                            <mxPoint x="455" y="990"/>
                        </Array>
                    </mxGeometry>
                </mxCell>
                <mxCell id="90" value="监听路由变更" style="rounded=1;whiteSpace=wrap;html=1;shadow=1;startSize=20;gradientColor=#ffffff;align=center;fontColor=#1A1A1A;fillColor=#FFFFFF;" parent="40" vertex="1">
                    <mxGeometry x="395" y="840" width="120" height="60" as="geometry"/>
                </mxCell>
                <mxCell id="96" style="edgeStyle=none;html=1;exitX=0.5;exitY=1;exitDx=0;exitDy=0;entryX=0.5;entryY=0;entryDx=0;entryDy=0;startSize=20;fontColor=#1A1A1A;" parent="40" source="91" target="95" edge="1">
                    <mxGeometry relative="1" as="geometry"/>
                </mxCell>
                <mxCell id="91" value="router.queuedRender" style="rounded=1;whiteSpace=wrap;html=1;shadow=1;startSize=20;gradientColor=#ffffff;align=center;fontColor=#1A1A1A;fillColor=#FFFFFF;" parent="40" vertex="1">
                    <mxGeometry x="255" y="960" width="160" height="60" as="geometry"/>
                </mxCell>
                <mxCell id="103" value="如果render结束后&lt;br&gt;路由发生变更" style="edgeStyle=none;html=1;exitX=0;exitY=0.5;exitDx=0;exitDy=0;entryX=0;entryY=0.5;entryDx=0;entryDy=0;startSize=20;fontColor=#1A1A1A;" parent="40" source="95" target="91" edge="1">
                    <mxGeometry relative="1" as="geometry">
                        <Array as="points">
                            <mxPoint x="185" y="1150"/>
                            <mxPoint x="185" y="990"/>
                        </Array>
                    </mxGeometry>
                </mxCell>
                <mxCell id="105" style="edgeStyle=none;html=1;exitX=0.5;exitY=1;exitDx=0;exitDy=0;entryX=0.5;entryY=0;entryDx=0;entryDy=0;startSize=20;fontColor=#1A1A1A;" parent="40" source="95" target="104" edge="1">
                    <mxGeometry relative="1" as="geometry"/>
                </mxCell>
                <mxCell id="95" value="router.render" style="rounded=1;whiteSpace=wrap;html=1;shadow=1;startSize=20;gradientColor=#ffffff;align=center;fontColor=#1A1A1A;fillColor=#FFFFFF;" parent="40" vertex="1">
                    <mxGeometry x="255" y="1120" width="160" height="60" as="geometry"/>
                </mxCell>
                <mxCell id="107" style="edgeStyle=none;html=1;exitX=0.5;exitY=1;exitDx=0;exitDy=0;startSize=20;fontColor=#1A1A1A;" parent="40" source="104" target="106" edge="1">
                    <mxGeometry relative="1" as="geometry"/>
                </mxCell>
                <mxCell id="104" value="实例化LocationContext" style="rounded=1;whiteSpace=wrap;html=1;shadow=1;startSize=20;gradientColor=#ffffff;align=center;fontColor=#1A1A1A;fillColor=#FFFFFF;" parent="40" vertex="1">
                    <mxGeometry x="255" y="1260" width="160" height="60" as="geometry"/>
                </mxCell>
                <mxCell id="111" value="" style="edgeStyle=none;html=1;startSize=20;entryX=0.5;entryY=0;entryDx=0;entryDy=0;fontColor=#1A1A1A;" parent="40" source="106" target="118" edge="1">
                    <mxGeometry relative="1" as="geometry">
                        <mxPoint x="335" y="1540" as="targetPoint"/>
                    </mxGeometry>
                </mxCell>
                <mxCell id="106" value="LocationContext.matchStoryboard" style="rounded=1;whiteSpace=wrap;html=1;shadow=1;startSize=20;gradientColor=#ffffff;align=center;fontColor=#1A1A1A;fillColor=#FFFFFF;" parent="40" vertex="1">
                    <mxGeometry x="225" y="1400" width="220" height="60" as="geometry"/>
                </mxCell>
                <mxCell id="117" value="" style="edgeStyle=none;html=1;startSize=20;fontColor=#1A1A1A;" parent="40" source="113" target="116" edge="1">
                    <mxGeometry relative="1" as="geometry"/>
                </mxCell>
                <mxCell id="113" value="加载微应用详情" style="rounded=1;whiteSpace=wrap;html=1;shadow=1;startSize=20;gradientColor=#ffffff;align=center;fontColor=#1A1A1A;fillColor=#FFFFFF;" parent="40" vertex="1">
                    <mxGeometry x="275" y="1710" width="120" height="60" as="geometry"/>
                </mxCell>
                <mxCell id="122" value="" style="edgeStyle=none;html=1;fontColor=#1A1A1A;" parent="40" source="116" target="121" edge="1">
                    <mxGeometry relative="1" as="geometry"/>
                </mxCell>
                <mxCell id="116" value="将动态解析后的模板还原, 以便重新动态解析;&lt;br&gt;预加载权限信息;&lt;br&gt;根据路由匹配到依赖库, 并通过懒加载到形式加载;&lt;br&gt;注册storyboard.meta上面用户编排的模板&amp;amp;函数;&lt;br&gt;注册mocks规则" style="rounded=1;whiteSpace=wrap;html=1;shadow=1;startSize=20;align=center;fontColor=#ffffff;fillColor=#0050ef;strokeColor=#001DBC;" parent="40" vertex="1">
                    <mxGeometry x="185" y="1850" width="300" height="100" as="geometry"/>
                </mxCell>
                <mxCell id="120" value="命中" style="edgeStyle=none;html=1;exitX=0.5;exitY=1;exitDx=0;exitDy=0;startSize=20;fontColor=#1A1A1A;" parent="40" source="118" target="113" edge="1">
                    <mxGeometry relative="1" as="geometry"/>
                </mxCell>
                <mxCell id="118" value="&lt;span style=&quot;font-size: 11px&quot;&gt;在bootstrap中的storyboard中&lt;/span&gt;&lt;br style=&quot;font-size: 11px&quot;&gt;&lt;span style=&quot;font-size: 11px&quot;&gt;捕获到微应用到信息&lt;/span&gt;" style="rhombus;whiteSpace=wrap;html=1;rounded=1;shadow=1;gradientColor=#ffffff;startSize=20;fontColor=#1A1A1A;fillColor=#FFFFFF;" parent="40" vertex="1">
                    <mxGeometry x="215" y="1530" width="240" height="100" as="geometry"/>
                </mxCell>
                <mxCell id="125" value="" style="edgeStyle=none;html=1;fontColor=#1A1A1A;" parent="40" source="121" target="124" edge="1">
                    <mxGeometry relative="1" as="geometry"/>
                </mxCell>
                <mxCell id="121" value="销毁 mounitPoint.bg&lt;br&gt;(unmountTree)" style="whiteSpace=wrap;html=1;rounded=1;shadow=1;gradientColor=#ffffff;startSize=20;fontColor=#1A1A1A;fillColor=#FFFFFF;" parent="40" vertex="1">
                    <mxGeometry x="275" y="2050" width="120" height="60" as="geometry"/>
                </mxCell>
                <mxCell id="124" value="LocationContext.mountRoutes" style="whiteSpace=wrap;html=1;rounded=1;shadow=1;gradientColor=#ffffff;startSize=20;fontColor=#1A1A1A;fillColor=#FFFFFF;" parent="40" vertex="1">
                    <mxGeometry x="190" y="2190" width="290" height="60" as="geometry"/>
                </mxCell>
                <mxCell id="160" value="" style="edgeStyle=none;html=1;fontColor=#1A1A1A;" parent="40" source="157" target="159" edge="1">
                    <mxGeometry relative="1" as="geometry"/>
                </mxCell>
                <mxCell id="157" value="从mountRoutesResult取出数据" style="rounded=1;whiteSpace=wrap;html=1;fontColor=#1A1A1A;fillColor=#FFFFFF;" parent="40" vertex="1">
                    <mxGeometry x="165" y="3710" width="370" height="60" as="geometry"/>
                </mxCell>
                <mxCell id="162" value="" style="edgeStyle=none;html=1;fontColor=#1A1A1A;" parent="40" source="159" target="161" edge="1">
                    <mxGeometry relative="1" as="geometry"/>
                </mxCell>
                <mxCell id="159" value="如果未登录&lt;br&gt;重定向到登陆页面" style="whiteSpace=wrap;html=1;rounded=1;fontColor=#1A1A1A;fillColor=#FFFFFF;" parent="40" vertex="1">
                    <mxGeometry x="230" y="3850" width="240" height="60" as="geometry"/>
                </mxCell>
                <mxCell id="165" value="" style="edgeStyle=none;html=1;fontColor=#1A1A1A;" parent="40" source="161" target="164" edge="1">
                    <mxGeometry relative="1" as="geometry"/>
                </mxCell>
                <mxCell id="161" value="如果有redirect字段&lt;br&gt;路由重定向到具体页面" style="whiteSpace=wrap;html=1;rounded=1;fontColor=#1A1A1A;fillColor=#FFFFFF;" parent="40" vertex="1">
                    <mxGeometry x="230" y="3990" width="240" height="60" as="geometry"/>
                </mxCell>
                <mxCell id="167" value="" style="edgeStyle=none;html=1;fontColor=#1A1A1A;" parent="40" source="164" target="166" edge="1">
                    <mxGeometry relative="1" as="geometry"/>
                </mxCell>
                <mxCell id="164" value="记录路由变更&lt;br&gt;currentApp&lt;br&gt;previousApp" style="whiteSpace=wrap;html=1;rounded=1;fontColor=#1A1A1A;fillColor=#FFFFFF;" parent="40" vertex="1">
                    <mxGeometry x="290" y="4130" width="120" height="60" as="geometry"/>
                </mxCell>
                <mxCell id="169" value="" style="edgeStyle=none;html=1;fontColor=#1A1A1A;" parent="40" source="166" target="168" edge="1">
                    <mxGeometry relative="1" as="geometry"/>
                </mxCell>
                <mxCell id="166" value="渲染基础布局&lt;br&gt;kernel.layoutBootstrap&lt;br&gt;(menuBar, appBar, loadingBar)" style="whiteSpace=wrap;html=1;rounded=1;fontColor=#1A1A1A;fillColor=#FFFFFF;" parent="40" vertex="1">
                    <mxGeometry x="230" y="4270" width="240" height="60" as="geometry"/>
                </mxCell>
                <mxCell id="171" value="" style="edgeStyle=none;html=1;fontColor=#1A1A1A;" parent="40" source="168" target="170" edge="1">
                    <mxGeometry relative="1" as="geometry"/>
                </mxCell>
                <mxCell id="168" value="&lt;div style=&quot;color: rgb(212 , 212 , 212) ; background-color: rgb(30 , 30 , 30) ; font-family: &amp;#34;menlo&amp;#34; , &amp;#34;monaco&amp;#34; , &amp;#34;courier new&amp;#34; , monospace ; line-height: 18px&quot;&gt;&lt;span style=&quot;color: #9cdcfe&quot;&gt;state&lt;/span&gt; = &lt;span style=&quot;color: #ce9178&quot;&gt;&quot;ready-to-mount&quot;&lt;/span&gt;&lt;/div&gt;" style="whiteSpace=wrap;html=1;rounded=1;fillColor=#FFFFFF;" parent="40" vertex="1">
                    <mxGeometry x="230" y="4410" width="240" height="60" as="geometry"/>
                </mxCell>
                <mxCell id="173" value="" style="edgeStyle=none;html=1;fontColor=#1A1A1A;" parent="40" source="170" target="172" edge="1">
                    <mxGeometry relative="1" as="geometry"/>
                </mxCell>
                <mxCell id="170" value="卸载旧页面DOM元素&lt;br&gt;unmountTree&lt;br&gt;(mountPoints.main, mountPoints.protal)&lt;br&gt;重置顶栏&amp;amp;侧边栏&lt;br&gt;unsetBars&lt;br&gt;设置主题, 模式&lt;br&gt;loactionContext.handleBeforePageLoad&lt;br&gt;触发生命周期方法" style="whiteSpace=wrap;html=1;rounded=1;fillColor=#0050ef;strokeColor=#001DBC;fontColor=#ffffff;" parent="40" vertex="1">
                    <mxGeometry x="230" y="4550" width="240" height="140" as="geometry"/>
                </mxCell>
                <mxCell id="176" value="" style="edgeStyle=none;html=1;fontColor=#1A1A1A;" parent="40" source="172" target="175" edge="1">
                    <mxGeometry relative="1" as="geometry"/>
                </mxCell>
                <mxCell id="172" value="遍历&lt;span style=&quot;background-color: rgb(30 , 30 , 30) ; font-family: &amp;#34;menlo&amp;#34; , &amp;#34;monaco&amp;#34; , &amp;#34;courier new&amp;#34; , monospace&quot;&gt;&lt;font color=&quot;#ffffff&quot;&gt;menuInBg&lt;/font&gt;&lt;/span&gt;&lt;span&gt;,&amp;nbsp; 开始渲染页面&lt;/span&gt;" style="whiteSpace=wrap;html=1;rounded=1;fontColor=#1A1A1A;fillColor=#FFFFFF;" parent="40" vertex="1">
                    <mxGeometry x="230" y="4750" width="240" height="60" as="geometry"/>
                </mxCell>
                <mxCell id="224" value="" style="edgeStyle=none;html=1;fontColor=#1A1A1A;" parent="40" source="175" target="223" edge="1">
                    <mxGeometry relative="1" as="geometry"/>
                </mxCell>
                <mxCell id="175" value="mountTree&lt;br&gt;开始执行页面渲染&lt;br&gt;(main, portal)" style="whiteSpace=wrap;html=1;rounded=1;fillColor=#d80073;strokeColor=#A50040;fontColor=#ffffff;" parent="40" vertex="1">
                    <mxGeometry x="230" y="4890" width="240" height="60" as="geometry"/>
                </mxCell>
                <mxCell id="228" value="" style="edgeStyle=none;html=1;fontColor=#1A1A1A;" parent="40" source="223" target="227" edge="1">
                    <mxGeometry relative="1" as="geometry"/>
                </mxCell>
                <mxCell id="223" value="执行afterMountTree" style="whiteSpace=wrap;html=1;rounded=1;strokeColor=#f0f0f0;shadow=1;fontColor=#1A1A1A;fillColor=#FFFFFF;" parent="40" vertex="1">
                    <mxGeometry x="230" y="5230" width="240" height="80" as="geometry"/>
                </mxCell>
                <mxCell id="231" value="" style="edgeStyle=none;html=1;fontColor=#1A1A1A;" parent="40" source="227" target="230" edge="1">
                    <mxGeometry relative="1" as="geometry"/>
                </mxCell>
                <mxCell id="227" value="&lt;font color=&quot;#000000&quot;&gt;是否渲染成功&lt;/font&gt;" style="rhombus;whiteSpace=wrap;html=1;rounded=1;fontColor=#f0f0f0;strokeColor=#f0f0f0;fillColor=#FFFFFF;gradientColor=#ffffff;" parent="40" vertex="1">
                    <mxGeometry x="270" y="5390" width="160" height="80" as="geometry"/>
                </mxCell>
                <mxCell id="234" style="edgeStyle=none;html=1;exitX=0.5;exitY=1;exitDx=0;exitDy=0;entryX=0.51;entryY=-0.051;entryDx=0;entryDy=0;entryPerimeter=0;fontColor=#1A1A1A;" parent="40" source="230" target="232" edge="1">
                    <mxGeometry relative="1" as="geometry"/>
                </mxCell>
                <mxCell id="230" value="触发生命周期上的方法&lt;br&gt;&lt;div style=&quot;color: rgb(212 , 212 , 212) ; background-color: rgb(30 , 30 , 30) ; font-family: &amp;#34;menlo&amp;#34; , &amp;#34;monaco&amp;#34; , &amp;#34;courier new&amp;#34; , monospace ; line-height: 18px&quot;&gt;&lt;span style=&quot;color: #9cdcfe&quot;&gt;locationContext&lt;/span&gt;.&lt;span style=&quot;color: #dcdcaa&quot;&gt;handlePageLoad&lt;br&gt;&lt;/span&gt;&lt;div style=&quot;line-height: 18px&quot;&gt;&lt;span style=&quot;color: #9cdcfe&quot;&gt;locationContext&lt;/span&gt;.&lt;span style=&quot;color: #dcdcaa&quot;&gt;handleAnchorLoad&lt;br&gt;&lt;/span&gt;&lt;div style=&quot;line-height: 18px&quot;&gt;&lt;span style=&quot;color: #9cdcfe&quot;&gt;locationContext&lt;/span&gt;.&lt;span style=&quot;color: #4fc1ff&quot;&gt;resolver&lt;/span&gt;.&lt;span style=&quot;color: #dcdcaa&quot;&gt;scheduleRefreshing&lt;br&gt;&lt;/span&gt;&lt;div style=&quot;font-family: &amp;#34;menlo&amp;#34; , &amp;#34;monaco&amp;#34; , &amp;#34;courier new&amp;#34; , monospace ; line-height: 18px&quot;&gt;&lt;span style=&quot;color: #9cdcfe&quot;&gt;locationContext&lt;/span&gt;.&lt;span style=&quot;color: #dcdcaa&quot;&gt;handleMessage&lt;/span&gt;&lt;/div&gt;&lt;/div&gt;&lt;/div&gt;&lt;/div&gt;" style="whiteSpace=wrap;html=1;rounded=1;fontColor=#ffffff;strokeColor=#001DBC;fillColor=#0050ef;" parent="40" vertex="1">
                    <mxGeometry x="175" y="5530" width="350" height="110" as="geometry"/>
                </mxCell>
                <mxCell id="236" value="" style="edgeStyle=none;html=1;fontColor=#1A1A1A;" parent="40" source="232" target="235" edge="1">
                    <mxGeometry relative="1" as="geometry"/>
                </mxCell>
                <mxCell id="232" value="window.scrollTo(0, 0)" style="rounded=1;whiteSpace=wrap;html=1;strokeColor=#f0f0f0;shadow=1;fontColor=#1A1A1A;fillColor=#FFFFFF;" parent="40" vertex="1">
                    <mxGeometry x="280" y="5710" width="140" height="60" as="geometry"/>
                </mxCell>
                <mxCell id="239" value="" style="edgeStyle=none;html=1;fontColor=#1A1A1A;" parent="40" source="235" target="238" edge="1">
                    <mxGeometry relative="1" as="geometry"/>
                </mxCell>
                <mxCell id="235" value="&lt;div style=&quot;color: rgb(212 , 212 , 212) ; background-color: rgb(30 , 30 , 30) ; font-family: &amp;#34;menlo&amp;#34; , &amp;#34;monaco&amp;#34; , &amp;#34;courier new&amp;#34; , monospace ; line-height: 18px&quot;&gt;&lt;span style=&quot;color: #9cdcfe&quot;&gt;state&lt;/span&gt; = &lt;span style=&quot;color: #ce9178&quot;&gt;&quot;mounted&quot;&lt;/span&gt;&lt;/div&gt;" style="whiteSpace=wrap;html=1;rounded=1;strokeColor=#f0f0f0;shadow=1;fillColor=#FFFFFF;" parent="40" vertex="1">
                    <mxGeometry x="265" y="5850" width="170" height="60" as="geometry"/>
                </mxCell>
                <mxCell id="238" value="End" style="whiteSpace=wrap;html=1;rounded=1;strokeColor=#006EAF;fillColor=#1ba1e2;fontColor=#ffffff;" parent="40" vertex="1">
                    <mxGeometry x="290" y="5990" width="120" height="60" as="geometry"/>
                </mxCell>
                <mxCell id="241" value="渲染PageNotFound页面" style="rounded=1;whiteSpace=wrap;html=1;strokeColor=#FFFFFF;shadow=1;fontColor=#1A1A1A;fillColor=#FFFFFF;gradientColor=#ffffff;" parent="40" vertex="1">
                    <mxGeometry x="190" y="2410" width="280" height="60" as="geometry"/>
                </mxCell>
                <mxCell id="123" value="未命中" style="edgeStyle=none;html=1;exitX=0;exitY=0.5;exitDx=0;exitDy=0;fontColor=#1A1A1A;" parent="40" source="118" target="241" edge="1">
                    <mxGeometry relative="1" as="geometry">
                        <mxPoint x="190" y="2440" as="targetPoint"/>
                        <Array as="points">
                            <mxPoint x="70" y="1580"/>
                            <mxPoint x="70" y="2440"/>
                        </Array>
                    </mxGeometry>
                </mxCell>
                <mxCell id="245" style="edgeStyle=none;html=1;exitX=0.5;exitY=1;exitDx=0;exitDy=0;startSize=20;fontColor=#1A1A1A;" parent="40" source="241" target="238" edge="1">
                    <mxGeometry relative="1" as="geometry">
                        <mxPoint x="70" y="2550" as="targetPoint"/>
                        <Array as="points">
                            <mxPoint x="330" y="2550"/>
                            <mxPoint x="70" y="2550"/>
                            <mxPoint x="70" y="6020"/>
                        </Array>
                    </mxGeometry>
                </mxCell>
                <mxCell id="81" style="edgeStyle=none;html=1;exitX=1;exitY=0.5;exitDx=0;exitDy=0;entryX=0;entryY=0.5;entryDx=0;entryDy=0;startSize=20;fontColor=#1A1A1A;" parent="31" source="48" target="80" edge="1">
                    <mxGeometry relative="1" as="geometry"/>
                </mxCell>
                <mxCell id="88" style="edgeStyle=none;html=1;exitX=1;exitY=0.5;exitDx=0;exitDy=0;startSize=20;entryX=0;entryY=0.5;entryDx=0;entryDy=0;fontColor=#1A1A1A;" parent="31" source="85" target="87" edge="1">
                    <mxGeometry relative="1" as="geometry">
                        <mxPoint x="930" y="769.5714285714289" as="targetPoint"/>
                    </mxGeometry>
                </mxCell>
                <mxCell id="130" style="edgeStyle=none;html=1;exitX=1;exitY=0.5;exitDx=0;exitDy=0;entryX=0;entryY=0.5;entryDx=0;entryDy=0;fontColor=#1A1A1A;" parent="31" source="124" target="129" edge="1">
                    <mxGeometry relative="1" as="geometry"/>
                </mxCell>
                <mxCell id="41" value="LocationContext" style="swimlane;startSize=20;swimlaneFillColor=#FFFFFF;strokeColor=#000000;fillColor=#2A2A2A;fontColor=#FFFFFF;" parent="31" vertex="1">
                    <mxGeometry x="1510" y="20" width="590" height="6300" as="geometry"/>
                </mxCell>
                <mxCell id="132" value="" style="edgeStyle=none;html=1;fontColor=#1A1A1A;" parent="41" source="129" target="131" edge="1">
                    <mxGeometry relative="1" as="geometry"/>
                </mxCell>
                <mxCell id="129" value="locationContext.matchRouters" style="rounded=1;whiteSpace=wrap;html=1;fontColor=#1A1A1A;fillColor=#FFFFFF;" parent="41" vertex="1">
                    <mxGeometry x="180" y="2190" width="220" height="60" as="geometry"/>
                </mxCell>
                <mxCell id="136" value="" style="edgeStyle=none;html=1;fontColor=#1A1A1A;" parent="41" source="131" target="135" edge="1">
                    <mxGeometry relative="1" as="geometry"/>
                </mxCell>
                <mxCell id="137" value="获取到具体页面" style="edgeLabel;html=1;align=center;verticalAlign=middle;resizable=0;points=[];fontColor=#1A1A1A;" parent="136" vertex="1" connectable="0">
                    <mxGeometry x="-0.12" relative="1" as="geometry">
                        <mxPoint as="offset"/>
                    </mxGeometry>
                </mxCell>
                <mxCell id="131" value="从storyboard.routes上匹配具体页面" style="rhombus;whiteSpace=wrap;html=1;rounded=1;fontColor=#1A1A1A;fillColor=#FFFFFF;" parent="41" vertex="1">
                    <mxGeometry x="160" y="2320" width="260" height="100" as="geometry"/>
                </mxCell>
                <mxCell id="141" value="" style="edgeStyle=none;html=1;fontColor=#1A1A1A;" parent="41" source="135" target="140" edge="1">
                    <mxGeometry relative="1" as="geometry"/>
                </mxCell>
                <mxCell id="135" value="defineResolves&lt;br&gt;mountProviders&lt;br&gt;defineFreeContext&lt;br&gt;preCheckPermissions&lt;br&gt;computeRealValue&lt;br&gt;redirect check&lt;br&gt;&lt;b&gt;mountMenu&lt;/b&gt;&lt;br&gt;set documentId" style="whiteSpace=wrap;html=1;rounded=1;fontColor=#ffffff;fillColor=#0050ef;strokeColor=#001DBC;" parent="41" vertex="1">
                    <mxGeometry x="160" y="2510" width="260" height="150" as="geometry"/>
                </mxCell>
                <mxCell id="142" value="如果route存在&lt;br&gt;子路由" style="edgeStyle=none;html=1;exitX=1;exitY=0.5;exitDx=0;exitDy=0;entryX=1;entryY=0.5;entryDx=0;entryDy=0;fontColor=#1A1A1A;" parent="41" source="140" target="129" edge="1">
                    <mxGeometry relative="1" as="geometry">
                        <Array as="points">
                            <mxPoint x="540" y="2830"/>
                            <mxPoint x="540" y="2220"/>
                        </Array>
                    </mxGeometry>
                </mxCell>
                <mxCell id="144" value="如果类型是bricks" style="edgeStyle=none;html=1;fontColor=#1A1A1A;" parent="41" source="140" target="143" edge="1">
                    <mxGeometry relative="1" as="geometry"/>
                </mxCell>
                <mxCell id="140" value="判断route类型" style="rhombus;whiteSpace=wrap;html=1;rounded=1;fontColor=#1A1A1A;fillColor=#FFFFFF;" parent="41" vertex="1">
                    <mxGeometry x="170" y="2790" width="240" height="80" as="geometry"/>
                </mxCell>
                <mxCell id="147" value="" style="edgeStyle=none;html=1;fontColor=#1A1A1A;" parent="41" source="143" target="146" edge="1">
                    <mxGeometry relative="1" as="geometry"/>
                </mxCell>
                <mxCell id="143" value="locationContext.mouteBricks" style="whiteSpace=wrap;html=1;rounded=1;fontColor=#1A1A1A;fillColor=#FFFFFF;" parent="41" vertex="1">
                    <mxGeometry x="185" y="2960" width="215" height="60" as="geometry"/>
                </mxCell>
                <mxCell id="149" value="" style="edgeStyle=none;html=1;fontColor=#1A1A1A;" parent="41" source="146" target="148" edge="1">
                    <mxGeometry relative="1" as="geometry"/>
                </mxCell>
                <mxCell id="146" value="localtionContext.mountBrick" style="whiteSpace=wrap;html=1;rounded=1;fillColor=#d80073;strokeColor=#A50040;fontColor=#ffffff;" parent="41" vertex="1">
                    <mxGeometry x="185" y="3100" width="215" height="60" as="geometry"/>
                </mxCell>
                <mxCell id="153" value="" style="edgeStyle=none;html=1;fontColor=#1A1A1A;" parent="41" source="148" target="152" edge="1">
                    <mxGeometry relative="1" as="geometry"/>
                </mxCell>
                <mxCell id="148" value="获取 Context&lt;br&gt;判断 if, 如为false则没必要再执行&lt;br&gt;判断是否为 template&lt;br&gt;定义 context&lt;br&gt;preCheckPermissions&lt;br&gt;计算properties值&lt;br&gt;如果是template, 需要设置好tpl的属性&lt;br&gt;监听属性变更&lt;br&gt;(listenOnTrackingContext)&lt;br&gt;注册生命周期&lt;br&gt;执行useResolves&lt;br&gt;如果是template, 需要展开并进行解析" style="whiteSpace=wrap;html=1;rounded=1;fontColor=#ffffff;fillColor=#0050ef;strokeColor=#001DBC;" parent="41" vertex="1">
                    <mxGeometry x="190" y="3220" width="210" height="200" as="geometry"/>
                </mxCell>
                <mxCell id="154" value="如果插槽的类型属于&lt;br&gt;bricks或routes" style="edgeStyle=none;html=1;exitX=0;exitY=0.5;exitDx=0;exitDy=0;entryX=0;entryY=0.5;entryDx=0;entryDy=0;fontColor=#1A1A1A;" parent="41" source="152" target="140" edge="1">
                    <mxGeometry relative="1" as="geometry">
                        <Array as="points">
                            <mxPoint x="80" y="3560"/>
                            <mxPoint x="80" y="2830"/>
                        </Array>
                    </mxGeometry>
                </mxCell>
                <mxCell id="152" value="判断brickConf类型&lt;br&gt;根据类型打进对应的&lt;br&gt;mountPoint中&lt;br&gt;(后续渲染使用到到数据)" style="rhombus;whiteSpace=wrap;html=1;rounded=1;fontColor=#1A1A1A;fillColor=#FFFFFF;" parent="41" vertex="1">
                    <mxGeometry x="190" y="3480" width="220" height="160" as="geometry"/>
                </mxCell>
                <mxCell id="156" value="&lt;font style=&quot;font-family: &amp;#34;menlo&amp;#34; , &amp;#34;monaco&amp;#34; , &amp;#34;courier new&amp;#34; , monospace ; background-color: rgb(30 , 30 , 30)&quot; color=&quot;#ffffff&quot;&gt;mountRoutesResult&lt;/font&gt;" style="rounded=0;whiteSpace=wrap;html=1;fontColor=#1A1A1A;fillColor=#FFFFFF;" parent="41" vertex="1">
                    <mxGeometry x="200" y="3710" width="200" height="60" as="geometry"/>
                </mxCell>
                <mxCell id="155" style="edgeStyle=none;html=1;exitX=0.5;exitY=1;exitDx=0;exitDy=0;entryX=0.5;entryY=0;entryDx=0;entryDy=0;fontColor=#1A1A1A;" parent="41" source="152" target="156" edge="1">
                    <mxGeometry relative="1" as="geometry">
                        <mxPoint x="299.5714285714289" y="3690" as="targetPoint"/>
                    </mxGeometry>
                </mxCell>
                <mxCell id="198" value="reconciler" style="swimlane;startSize=20;swimlaneFillColor=#FFFFFF;strokeColor=#000000;fillColor=#2A2A2A;fontColor=#FFFFFF;" parent="31" vertex="1">
                    <mxGeometry x="2100" y="20" width="590" height="6300" as="geometry"/>
                </mxCell>
                <mxCell id="206" value="如果route存在&lt;br&gt;子路由" style="edgeStyle=none;html=1;exitX=1;exitY=0.5;exitDx=0;exitDy=0;entryX=1;entryY=0.5;entryDx=0;entryDy=0;" parent="198" edge="1">
                    <mxGeometry relative="1" as="geometry">
                        <mxPoint x="400" y="2220" as="targetPoint"/>
                        <Array as="points">
                            <mxPoint x="540" y="2830"/>
                            <mxPoint x="540" y="2220"/>
                        </Array>
                    </mxGeometry>
                </mxCell>
                <mxCell id="215" value="如果插槽的类型属于&lt;br&gt;bricks或routes" style="edgeStyle=none;html=1;exitX=0;exitY=0.5;exitDx=0;exitDy=0;entryX=0;entryY=0.5;entryDx=0;entryDy=0;" parent="198" edge="1">
                    <mxGeometry relative="1" as="geometry">
                        <mxPoint x="170" y="2830" as="targetPoint"/>
                        <Array as="points">
                            <mxPoint x="80" y="3560"/>
                            <mxPoint x="80" y="2830"/>
                        </Array>
                    </mxGeometry>
                </mxCell>
                <mxCell id="222" value="" style="edgeStyle=none;html=1;fontColor=#1A1A1A;" parent="198" source="220" target="221" edge="1">
                    <mxGeometry relative="1" as="geometry"/>
                </mxCell>
                <mxCell id="220" value="如果mountPoints还没卸载干净&lt;br&gt;重新执行umountTree" style="rounded=1;whiteSpace=wrap;html=1;shadow=1;fontColor=#1A1A1A;fillColor=#FFFFFF;" parent="198" vertex="1">
                    <mxGeometry x="210" y="4880" width="240" height="80" as="geometry"/>
                </mxCell>
                <mxCell id="221" value="遍历Bricks节点, 通过BrickNode实例化节点&lt;br&gt;遍历节点数据, 调用BrickNode.mount&lt;br&gt;mount方法会递归遍历节点, 在过程中会产生真实的DOM节点, 并会给每个节点添加上&lt;br&gt;属性跟绑定事件方法" style="whiteSpace=wrap;html=1;rounded=1;fillColor=#d80073;strokeColor=#A50040;fontColor=#ffffff;" parent="198" vertex="1">
                    <mxGeometry x="210" y="5050" width="240" height="120" as="geometry"/>
                </mxCell>
                <mxCell id="226" value="brickNode.afterMount&lt;br&gt;对模板类型的brick进行事件绑定&lt;br&gt;递归执行" style="rounded=1;whiteSpace=wrap;html=1;strokeColor=#f0f0f0;shadow=1;fontColor=#1A1A1A;fillColor=#FFFFFF;" parent="198" vertex="1">
                    <mxGeometry x="210" y="5230" width="240" height="80" as="geometry"/>
                </mxCell>
                <mxCell id="158" style="edgeStyle=none;html=1;exitX=0;exitY=0.5;exitDx=0;exitDy=0;entryX=1;entryY=0.5;entryDx=0;entryDy=0;fontColor=#1A1A1A;" parent="31" source="156" target="157" edge="1">
                    <mxGeometry relative="1" as="geometry"/>
                </mxCell>
                <mxCell id="219" style="edgeStyle=none;html=1;exitX=1;exitY=0.5;exitDx=0;exitDy=0;fontColor=#1A1A1A;" parent="1" source="175" edge="1">
                    <mxGeometry relative="1" as="geometry">
                        <mxPoint x="2360" y="5089.823529411765" as="targetPoint"/>
                    </mxGeometry>
                </mxCell>
                <mxCell id="225" style="edgeStyle=none;html=1;exitX=1;exitY=0.5;exitDx=0;exitDy=0;fontColor=#1A1A1A;" parent="1" source="223" edge="1">
                    <mxGeometry relative="1" as="geometry">
                        <mxPoint x="2360" y="5440" as="targetPoint"/>
                    </mxGeometry>
                </mxCell>
                <mxCell id="251" value="&lt;font&gt;开始/结束&lt;/font&gt;" style="rounded=1;whiteSpace=wrap;html=1;shadow=1;labelBackgroundColor=none;fillColor=#1ba1e2;strokeColor=#006EAF;" parent="1" vertex="1">
                    <mxGeometry x="50" y="20" width="80" height="40" as="geometry"/>
                </mxCell>
                <mxCell id="253" value="&lt;font&gt;关键节点&lt;/font&gt;" style="rounded=1;whiteSpace=wrap;html=1;shadow=1;labelBackgroundColor=none;strokeColor=#A50040;fillColor=#d80073;" parent="1" vertex="1">
                    <mxGeometry x="160" y="20" width="80" height="40" as="geometry"/>
                </mxCell>
                <mxCell id="254" value="关键逻辑" style="rounded=1;whiteSpace=wrap;html=1;shadow=1;labelBackgroundColor=none;fontColor=#ffffff;strokeColor=#001DBC;fillColor=#0050ef;" parent="1" vertex="1">
                    <mxGeometry x="280" y="20" width="90" height="40" as="geometry"/>
                </mxCell>
            </root>
        </mxGraphModel>
    </diagram>
    <diagram id="XhfiXhYuvOhulA5CLdvV" name="第 2 页">
        <mxGraphModel dx="1244" dy="1012" grid="1" gridSize="10" guides="1" tooltips="1" connect="1" arrows="1" fold="1" page="1" pageScale="1" pageWidth="3000" pageHeight="8000" math="0" shadow="0">
            <root>
                <mxCell id="fkjGiuRA3mw6Bpw4WsDi-0"/>
                <mxCell id="fkjGiuRA3mw6Bpw4WsDi-1" parent="fkjGiuRA3mw6Bpw4WsDi-0"/>
                <mxCell id="mTYfu1isgccmw9fN-hFH-0" value="template context 能力支持" style="swimlane;childLayout=stackLayout;resizeParent=1;resizeParentMax=0;startSize=20;" parent="fkjGiuRA3mw6Bpw4WsDi-1" vertex="1">
                    <mxGeometry x="100" y="110" width="710" height="1040" as="geometry"/>
                </mxCell>
                <mxCell id="mTYfu1isgccmw9fN-hFH-1" value="expandCustomTemplate" style="swimlane;startSize=20;" parent="mTYfu1isgccmw9fN-hFH-0" vertex="1">
                    <mxGeometry y="20" width="320" height="1020" as="geometry"/>
                </mxCell>
                <mxCell id="mTYfu1isgccmw9fN-hFH-7" value="" style="edgeStyle=none;html=1;" parent="mTYfu1isgccmw9fN-hFH-1" source="mTYfu1isgccmw9fN-hFH-5" target="mTYfu1isgccmw9fN-hFH-6" edge="1">
                    <mxGeometry relative="1" as="geometry"/>
                </mxCell>
                <mxCell id="mTYfu1isgccmw9fN-hFH-5" value="获取template上的context, 进行解析" style="whiteSpace=wrap;html=1;" parent="mTYfu1isgccmw9fN-hFH-1" vertex="1">
                    <mxGeometry x="90" y="60" width="120" height="60" as="geometry"/>
                </mxCell>
                <mxCell id="mTYfu1isgccmw9fN-hFH-6" value="getTplVariables&lt;br&gt;修改为getTplContext,&lt;br&gt;返回&lt;br&gt;{&amp;nbsp; &amp;nbsp; &amp;nbsp; &amp;nbsp; &amp;nbsp; &amp;nbsp; &amp;nbsp; &amp;nbsp; &amp;nbsp; &amp;nbsp; &amp;nbsp; &amp;nbsp; &amp;nbsp; &amp;nbsp; &amp;nbsp; &amp;nbsp;&amp;nbsp;&lt;br&gt;&amp;nbsp;CTX:&amp;nbsp; {...},&amp;nbsp; &amp;nbsp; &amp;nbsp; &amp;nbsp; &amp;nbsp; &amp;nbsp;&lt;br&gt;TPL:&amp;nbsp; {...},&amp;nbsp; &amp;nbsp; &amp;nbsp; &amp;nbsp; &amp;nbsp;&amp;nbsp;&lt;br&gt;}&amp;nbsp; &amp;nbsp; &amp;nbsp; &amp;nbsp; &amp;nbsp; &amp;nbsp; &amp;nbsp; &amp;nbsp; &amp;nbsp; &amp;nbsp; &amp;nbsp; &amp;nbsp; &amp;nbsp; &amp;nbsp; &amp;nbsp; &amp;nbsp;&amp;nbsp;" style="whiteSpace=wrap;html=1;" parent="mTYfu1isgccmw9fN-hFH-1" vertex="1">
                    <mxGeometry x="40" y="200" width="220" height="270" as="geometry"/>
                </mxCell>
                <mxCell id="mTYfu1isgccmw9fN-hFH-2" value="evaluate" style="swimlane;startSize=20;" parent="mTYfu1isgccmw9fN-hFH-0" vertex="1">
                    <mxGeometry x="320" y="20" width="390" height="1020" as="geometry"/>
                </mxCell>
                <mxCell id="mTYfu1isgccmw9fN-hFH-8" value="getIndividualGlobal&lt;br&gt;当 variableName 等于 CTX&lt;br&gt;则先从getTplContext中拿到CTX&lt;br&gt;匹配到则返回template中定义的context&lt;br&gt;否则, 再去全局的context中拿" style="whiteSpace=wrap;html=1;" parent="mTYfu1isgccmw9fN-hFH-2" vertex="1">
                    <mxGeometry x="65" y="520" width="260" height="190" as="geometry"/>
                </mxCell>
                <mxCell id="mTYfu1isgccmw9fN-hFH-13" style="edgeStyle=none;html=1;exitX=0.5;exitY=1;exitDx=0;exitDy=0;entryX=0.5;entryY=0;entryDx=0;entryDy=0;" parent="mTYfu1isgccmw9fN-hFH-2" source="mTYfu1isgccmw9fN-hFH-9" target="mTYfu1isgccmw9fN-hFH-8" edge="1">
                    <mxGeometry relative="1" as="geometry">
                        <mxPoint x="210" y="490" as="targetPoint"/>
                    </mxGeometry>
                </mxCell>
                <mxCell id="mTYfu1isgccmw9fN-hFH-9" value="修改&lt;br&gt;globalVariables.TPL&amp;nbsp;&lt;br&gt;=&lt;br&gt;runtimeContext.getTplContext().TPL" style="whiteSpace=wrap;html=1;" parent="mTYfu1isgccmw9fN-hFH-2" vertex="1">
                    <mxGeometry x="65" y="250" width="260" height="150" as="geometry"/>
                </mxCell>
                <mxCell id="mTYfu1isgccmw9fN-hFH-12" style="edgeStyle=none;html=1;exitX=1;exitY=0.5;exitDx=0;exitDy=0;entryX=0.006;entryY=0.57;entryDx=0;entryDy=0;entryPerimeter=0;" parent="mTYfu1isgccmw9fN-hFH-0" source="mTYfu1isgccmw9fN-hFH-6" target="mTYfu1isgccmw9fN-hFH-9" edge="1">
                    <mxGeometry relative="1" as="geometry"/>
                </mxCell>
                <mxCell id="mTYfu1isgccmw9fN-hFH-4" value="Storyboard, template增加context字段, 对应模型中需要增加字段" style="text;strokeColor=none;fillColor=none;html=1;fontSize=24;fontStyle=1;verticalAlign=middle;align=center;" parent="fkjGiuRA3mw6Bpw4WsDi-1" vertex="1">
                    <mxGeometry x="50" y="50" width="820" height="40" as="geometry"/>
                </mxCell>
            </root>
        </mxGraphModel>
    </diagram>
</mxfile>
